/* XPM */
static char *result[] = {
/* columns rows colors chars-per-pixel */
"64 64 46 1 ",
"  c #2B1A13",
". c #2A1C1A",
"X c #341E14",
"o c #3B1E13",
"O c #301E19",
"+ c #2E221C",
"@ c #362117",
"# c #3C2215",
"$ c #34241D",
"% c #3C261C",
"& c #36281F",
"* c #3D291E",
"= c #2E2521",
"- c #2F2A27",
"; c #332621",
": c #3A2720",
"> c #352A24",
", c #3C2C24",
"< c #352C29",
"1 c #3C2E29",
"2 c #3F3026",
"3 c #3E312A",
"4 c #412315",
"5 c #42261A",
"6 c #442A1D",
"7 c #492D1E",
"8 c #432E24",
"9 c #492E22",
"0 c #422F29",
"q c #453126",
"w c #4B3225",
"e c #4F3826",
"r c #44332A",
"t c #4B352A",
"y c #46392D",
"u c #4C392C",
"i c #513626",
"p c #533927",
"a c #50362A",
"s c #523A2C",
"d c #583F2F",
"f c #453631",
"g c #4A3730",
"h c #413834",
"j c #4D3A30",
"k c #533B30",
/* pixels */
"0wt,tw,t9t0990;>awatat0wgwg9rtw76%%%%55*,rqqtrt22rrtrgq0t8;8558O",
",qs,tt>00tw99<;0a9tttgggagagyqw86@@*%65*$02wwtt,3rrr0e0rt8<t954.",
",te3a919ww909>;0a99ggagggggwqq998+$%*5*%%6*w08w20rqtqt8tw0>w998O",
">0t,9t<09990w>;9a9aaatttwawa8:96*$@%**%*,,6q88qqrqyqt909w0:aww0:",
"198:t8>999090:>ra9aaartqgaaw,8998$&&+*&*:,1tqqtrtyt8tt,twr0ti98,",
"<et:98:999000><gawawtqrt0aa9::988::%$,>$$<3twtuuwrtrqt00t,09w900",
"-t0098:99990,1,katatw0,30wi9O%998%%;&8,=>qrqqq0qq8trte,t9,tww980",
",t899:85990,,<1gattar,><0aw8;:998>:&>,>>,qq0rq>3rttqut1tw,09w01t",
"qt,89:*5979:;<0gtqtut,>=:8t0$8wq*&,>>,&>,,qqq0>0q0tqut,at,ta981a",
"ew>87&*659::=<tgtqq6,:;>,tw,&676*$*,,:=,0qqq38&qrrttst>at0wt98,u",
"rt,96&*697%$;<9tq****>>>1q9%O56w,::,,1>,00e0,,,qyrytaq<et0tttrqt",
"q0:t8%*777%O>,098*%&:>*>,q9@X#55$&>,3,<888t8q23rtrttarrer0aetrqt",
"qq,eq&7778*>>:,,&**,%&:*>8%@$#4#$&&,,<,0,qwqq,22rrtyitqwq,ttt3tq",
"8w,tq*q766*&80,62**76$,8,#o&*#5%>,>>232q0qqq62321trruuqeq2tuqqwq",
"98,w6,688**282,62&*qq*qq8#oXo4*&:q>,<<3qqqq8qr320q,re0qer3ew7qw7",
"778i8*6q2>qqqqq,&**62*68,*%X##%&&,,r,,rq2,,,q2qq,,:0w1req3ew8&75",
"7wqw7**q2>q2qqq2&**62q8:,,%O#5*>%*,31,rr1<r<8,08,<+20,t9qqt9%&96",
"iiqw82*2>,qqwq7*&*&82qq,08%&55*8w4,,,rqr<<1<,000*&&>11t88099:%96",
"iwqwq*22><qt72*q>2*81tq:88%,8ww86#%,1tyr2<<33q0t2>>>00t0,:q8:*76",
"i8qi66*q<2rrq26,>2>,0fq<088,wweqq6#%8ytr<<<3rq0t*<2qr00,,>,,:898",
"p,w98,,q>,23y27&,0101r0,09:,wittwq*5%wt3<<<20t0t,<rqrr00<-;,,ww8",
"t:qq7,>q,1,3tqq>:00q10,,09%8ep7qtq2q0wq3<<2q0t00,>rtgg01,<<1,tw,",
"e,wq8q22r,qqu,2q0,08,80,q8:8ew7qrqqq0ty11,r080r0&<uggttf3f,>,te1",
"iqwqqqq,,qqqtq,88,0t088088,6wwtr33rrreq<3r088tt0<2uegtffr0r<rtr,",
"eqewq2q2,q87q722w8tqq9qr0r:67pt3rq3yruq<3f00t000<0wagfgfft03f9t<",
"t6i722r2,28*7qq2q,w88880qt&*wtt3r2rryu3-10098800>0waaggwftt00tt>",
"eqiw72q2*82quuy2qqtrq968tr&%9w91rqrrquy,0r09990010wawgwftff00w8,",
"wqpqq622282uuuyytqu3q9,6wq+X7981q3yr3ur20990090,1taiggg09t0g,900",
"i6w882qy22,tuuhyuru2qt,69,=:998,qqwqqy2>090908,,1tgaggggtgrg1rqq",
"9*768qey3q2tqy3rurqqtw097,3ft6508q7quu,,999098,>0taaaatw9ttgrttt",
"7%**6qq23q3yqjyryq6qqq,q8,;:85o:,q9qqt2,t88898,,0aaaaggtttttfttt",
"7##56q,22r3uuuyyuq77wwqr9,@o45%:86wqqt,1t999t9:;0waawgtaw0teqrea",
"6%5%46*:rqqtreq3q0trrt,0w::855$$0qwqqt8,f9t890<;0awgag0wttgw9ttt",
"5@%*6%6$8,qwrtq3frt0tt0t9<0996o:,8twqi2,wwt908:>wttawggggatatrta",
"*$%#556$%,6w,wq,qrt8ttttt<0999;>20tqqt0,ww9898+:wa9wggggggagtqt9",
"%+*%5*:%88w8,wq2qrt0t09ww,9iw9,qq,t0qt0,999009;199taaawagtaww898",
"$&*+*%689,qqqrtrtrqqe10wt10ai9:yq8888w*,989980>1aataaatgqtpiq,8w",
"*&*+*&8:,ryqruutqqtrtr0900t998,qr0t8888099908,<1ki9tt000qupi0,79",
":**$*:*00reqrqqr8tgre009009ww8rr10t009:879t00,<rkaaa9a:0rtww,,6w",
",&,&6*00qrt1q,1ttttturqw80w981qt008999:5999,,,1faaaaa0;<18tt>>67",
"*>,>,:0qqq72q:,q,ttts1qa0qe991qtqt0,w8$67778;<,gjakat0<->0tw;:89",
"&&,:6&888qq3q>,q0rrus,qs00et9,qttt0,9%$6579:;-0tasaty,<->0tw$59w",
">*,,96%0,qq,0,,qrgtet1qu0ttttrqtr90896$6895O=>0aasat0;;<>,w6O#79",
"+*;0,8%82twq8,2yrrqttrte0raerrtqrw,,w8:7799O$;0waaat$=<1<09% o45",
"+*&288:8,tqqq,,rqggteqtt3rutrqtqqr,qt,*9798$;:8iaaaw&-<<1>8%$##4",
"<,+,q8:86wqq831,ttytertt2qet2qw60w6qw,0w958:>>qiiaa9>>rt0*5@>%#6",
"2,>,,8268qqqqqr1tqrtq0tt2qtwqqw*8q6qw88689:=>,qiattr=3ww8&5XX448",
",,2q2qqqqq*22rq1eqqe80ew,ttw*2956wqww8,7598+:1wteut3<,www&6#o4%;",
"**22q8qqqq,q,2q,eqqtqqwi2tww>,7567qwwq8978,=<rustaey<,tww88$o55>",
"55,qqqqqqtqqq2treuupqqw92wt8;676iiwwq887766+,qsskttr,0waa88o%58:",
"7#*,q8qqww2q3rstseesttsw2ww8>668iwqwqqw9975$&2skktt1,taaw88867w8",
"7#%*w,qqww,q33uyuuus3qus2ww,,98we78tw,89w9*>>qsster1<wwt098:qwiw",
"wq8%8,r3wqqqyryyuyusrtaeqtiqqwqqeq2eq*7q99,<<qkesurr1tw908,*qtit",
"e,t,88u<q2ruyrureuiprwiwqtt2qtq0qqqeq0tw9q<33ydsskr3rq88086$tii9",
"e,qq88e2uqqyu3uysuidqqat2tu2quqrtq8p9qawt0>3<rdpkuqr089888,*wp7w",
"t1yrtwr2yuuuyyujpipsrqeqqttqruq,tww70qatat,12uutst,q8080q68*we9e",
"w2y3utyyweeutqyukupaqttgqeeytt80ewwe*,pteq>1rttqwt,tq990qq86wwtq",
"q<u3yq3ryquq0qtugreattt0rut3qt,0wq7i28wwwq<,,tt2qq,t088,rt0,9ttq",
"q2u2yeqruww00rytggaattt3rjrqww08iwewq,wwq0,2uuurqyqr,t9%et1:7wqq",
"t2u2re0tqqq80q0rrtaajgtrtau2qq18iwwt,,68q,qryujrqtru,w8%wt,O56w,",
"qqt,tt<098t890:,0gkgggg0ttt0qq1tp77q2qqq22qquuyyuttq1wt%98;;769*",
"q8wqjq<09988t8<,tawaatt0twg0rqqeeqq76qryy323uyj3yyqtqw88991ht96&",
"q6qqt0,0099890,>waawgattwttgtywwt6*#6qqy3qr2qyu3qy678tq199;&574$",
",6wqw0,09t89w,>>wawwagtatwwtrrwtpw%#56223qrruuuyuy769wt0t8;Xo5%&"
};
