/* XPM */
static char *result[] = {
/* columns rows colors chars-per-pixel */
"64 64 150 2 ",
"   c #0A1716",
".  c #0A1916",
"X  c #0C1D1D",
"o  c #0E201F",
"O  c #15201F",
"+  c #0D2221",
"@  c #122423",
"#  c #1E3B39",
"$  c #233635",
"%  c #253936",
"&  c #243C3C",
"*  c #2A3E3C",
"=  c #393D3A",
"-  c #24413E",
";  c #2B413E",
":  c #2B3F40",
">  c #254342",
",  c #2B4342",
"<  c #274648",
"1  c #2D4748",
"2  c #314444",
"3  c #374944",
"4  c #3C4A46",
"5  c #354C4A",
"6  c #3C5551",
"7  c #454E47",
"8  c #454E4A",
"9  c #44524D",
"0  c #4A534E",
"q  c #465653",
"w  c #4A5653",
"e  c #4B5956",
"r  c #4B5E5A",
"t  c #505653",
"y  c #505F5D",
"u  c #5B5F59",
"i  c #45615E",
"p  c #4C615E",
"a  c #55615D",
"s  c #5B625C",
"d  c #61645F",
"f  c #4A5F61",
"g  c #4B6463",
"h  c #4D6965",
"j  c #4C6768",
"k  c #4E6B69",
"l  c #536665",
"z  c #5C6562",
"x  c #516966",
"c  c #596A66",
"v  c #516668",
"b  c #546C6B",
"n  c #596E6B",
"m  c #4B706F",
"M  c #56716B",
"N  c #596F70",
"B  c #4C7172",
"V  c #547776",
"C  c #5A7272",
"Z  c #5E7876",
"A  c #537A7B",
"S  c #5D7C7A",
"D  c #606761",
"F  c #666B65",
"G  c #71756E",
"H  c #607577",
"J  c #647A76",
"K  c #687B75",
"L  c #637E7B",
"P  c #6B7E7B",
"I  c #737B75",
"U  c #7C7A71",
"Y  c #737F7D",
"T  c #7C7E79",
"R  c #5D817E",
"E  c #62827D",
"W  c #6C827E",
"Q  c #768177",
"!  c #73837E",
"~  c #7B837C",
"^  c #7A887F",
"/  c #83857D",
"(  c #87897E",
")  c #8C8B7F",
"_  c #5D8180",
"`  c #648584",
"'  c #6B8684",
"]  c #668986",
"[  c #6B8986",
"{  c #668789",
"}  c #6A8788",
"|  c #668A89",
" . c #6C8B8B",
".. c #738683",
"X. c #7A8682",
"o. c #738985",
"O. c #7C8A85",
"+. c #748789",
"@. c #788788",
"#. c #738C8B",
"$. c #7B8D8B",
"%. c #6E908E",
"&. c #74918E",
"*. c #7B918D",
"=. c #6D8D91",
"-. c #728F91",
";. c #7A8E90",
":. c #6F9090",
">. c #749191",
",. c #7B9392",
"<. c #7A9899",
"1. c #818681",
"2. c #838B85",
"3. c #8B8D85",
"4. c #838D8A",
"5. c #8B8E8A",
"6. c #928D84",
"7. c #918E8B",
"8. c #8E9187",
"9. c #84918D",
"0. c #8C928C",
"q. c #959187",
"w. c #93948C",
"e. c #99978F",
"r. c #9B998E",
"t. c #849491",
"y. c #8C9692",
"u. c #839895",
"i. c #8D9995",
"p. c #839C9B",
"a. c #939691",
"s. c #999791",
"d. c #949994",
"f. c #9B9B93",
"g. c #959E99",
"h. c #9A9C99",
"j. c #A19D95",
"k. c #A09E99",
"l. c #85A09A",
"z. c #8CA29D",
"x. c #95A09B",
"c. c #9DA09B",
"v. c #A3A29B",
"b. c #A9A59E",
"n. c #AAA89E",
"m. c #8CA4A2",
"M. c #91A4A1",
"N. c #91A8A7",
"B. c #AAA6A2",
"V. c #ADA8A2",
/* pixels */
"b n b j l h x x n b b b b x f v g f g p g g g g g g j b b b M M C b b x N N N N M N h j b b b n C C H n x x p x x n n b M b b h ",
"l.z.m.l.p.l.m.z.x.M.N.z.p.u.;.,.u.u.*.#.#.o.[ [ [ ' o.o.o.' [ ' ..' } W ..$.;.,.*. .W W ' $.$.*.W ..' $.$.*.9.4.$.#. .#. .[ [  .",
"| =. .=.#. .;.*.#.$.t.0.d.i.0.w.w.0.w.0.7.7.0.5.0.a.a.0.0.5.3.4.2.0.a.h.h.j.k.w.5.e.w.a.w.f.0.0.d.d.w.O.O.*.$.o.o.[  . . . .=. .",
"|  . . . . .#.&.;.9.*.y.9.y.4.4.O.4.4.4.5.9.w.y.s.w.X.a.5.7.1.T 1.( 6.w.s.w.7.k.v.v.j.6.w.w.a.0.y.9.*.#. . .[  .[  .[  . .' ] | ",
"%.%. .] |  . . .#. .#.#.#. .o.#.o.#.o.#.$.O.@.$.O.......X.X.! W W ! ~ ~ X.2.5.3.0.3.4.$.$.,.#.] R S | | | | [ |  . .]  . . . . .",
"&.%.[  . .#.#. .o. .[  . .#.W [ #. .}  .o.o.W W ' #.[  . .' [ ' ] ' ' ' [ ' ' [ W [ ..[  .|  . . .|  .[ %.%. .[ [  .[ #.[ o.>.>.",
"[ [  .:.>.#.#.-.#.o.[ #.#.[  . .[ [ }  .] [ ......W ' [ ' ` W ' ' '  .` ` { ]  .' [ W ` ` ` [  . .[ | | |  . . . .[ ' ' [ &.>. .",
" .#. .#.&.&.&.#. .#.[ ' #.] [ W ' o.[ ..' ' ! X.@.4.....W W ' ' W ' ..' ' [ [ Z Z W ' #.#.&.*.,.*.,.*.,.*.*.,.$.$.o.' '  .|  .#.",
" .>.,.>.>.&.&.&. .o. .+.' +...o.+...o.......X.+.@.$.o...W W ' ' ..o.$.$.! ! Y n P ......@.9.t.9.4.9.*.*.$.,.$.#.$.' o.[ ] [ #.#.",
"&.&.%.#.#.>.&. .[ [  . .#.'  .' W ' ' [ o.o.*.$.9.O.$.@.X.X.! ' $.W y.9.4.4.O.O.$...#.! ! #.o.$.' o.o.$.$.$.$.$...J ' L } ' L ' ",
"&.>.*.,.*.*.*.9.$.O.O.2.2.1.X.Q T ! Y P W W ! J W L ` ` ` ]  . .' ' ` ..o.@.@.#.@.#.O...#.$.#. .#.' ` ' ' #.+.X.W J [ #. .}  .>.",
"| [ #. . .=. .[  . .' ' ' ' ' ' `  .'  .] ] [ | ` ] ] _ ] ` ' } } [ [ #.#... .} ' ' ` ] ] { ] ` ] `  .[ ' ] ] ` ` E E ` ' { | [ ",
" . .| [  .| { ' { ] ] ` ' [ [ | ] ]  .{ | | | | | ] _ | _ %.| ] }  . . . .' } ` ` ` ' | ] | | %. . . . .[ [  . .] ]  . . . .-. .",
">. . . . . .] [ [ [ '  .` { ] { { ] { { | ] ] ] | ` ] | | |  . . . .#.[  .[ ' } ' ] [ [  . .#.-.#.#.*.&.&.>.,.#.#.:. .#.-. .%.>.",
" . . . . . . .} ` ] ` ` { { ] ] ` ] ] { ] ] ] _ ` ` ] ` ] _  .' #. .#.' } ' ' W  .#.' o.-.#.#.#.&.#.#.#.>.#.%.%. . .] %.%.&. .] ",
"%. .%. . .] ] ] ] ] ] [ | { { } ] ` [ | | { { ] | ] ] ] | ] `  . .o.#. . . .'  .' ' ' +.#...#.#.>.*.#.&. .#.:. .|  .` ]  . .#.%.",
" .[ #. . . .[ ' ] ' [ [  .' ' ] ] { [ ] | ] ] ] ' ] ] ] ] |  .] ] } [ { ` } ' } ] }  .[ #.' #.$.9.9.u.t.t.u.t.9.*.o.[ o...*.9.9.",
"u.&. . .o. . . .#.[ ' ' ' [ o.o.' ..#.-.[ o.' ..W J E W ..[ #.&.#. .[ ` [ ' ` ] ` ] ]  .'  . . .#.&.*.9.$.y.g.i.y.i.i.t.i.0.c.c.",
"*.*.#.$.#.#.$.#.[ ..o.[ ..[  . . .[  .[ [ '  .` ] ` _ ` ]  .` }  . .[  .] ] }  .' ]  . . . . .#.#. . .#. .o.o.,.&.#.$.9.9.d.h.y.",
"o.&.&.o. .]  .[  .| [ ]  . . . . .]  .[ | }  .[ ]  .| ] =. . . .| {  . .=.' } ] '  . .[ #.#.#.>.&.&. . .' ' [ #.o.#.....#.$.$.o.",
"#. .| %. . . . . .| |  . . . .[  . .[ [  . . . . .] ` ` ]  .|  . .| }  . .#. .}  . .'  .#.$.;.#.#.$.o.o.' ' o.#.&.o. ...*.#.o.#.",
" . . . . . . .[ %.[ | [ ]  .[  . . . . . . . . . .[ ` ] ] |  .=. . . . . . . .-. .#.&. . .#. .#.#.[ [ ' ' #.[ o.#.o.#.[ o.$.o.#.",
"'  . . . .%. . .] | |  . .[ ` ` ` `  .[ [ ' [ #.+. .] ` E |  .=. .[  . . .#. .E E ` #.&.#.$.#.#.o.[ ' [ ' ' ..[ &. .[ o.#.o.o.' ",
" . . .[ %. .[ #.%.|  .| ]  .:.%. . . .=. .&.#.o.#. .| _ ` ` ` ` ` ` ] {  . . .' L ` <.#.#.[ #.#.#.[ ' W #.#.#.#.&.o.#.o.[ ' #.[ ",
"[ '  .[  .=. . . .%. .%.=. . .>.%.#.>.>.:.:. .>.>.>. .' [  .[ [ { ' ] ' { { ` L ` ` [ E _ L S E E R ` W [ ..o...O.O...o.#.o.$.$.",
"' ..' o.[  . . .[ [  .[  . . . .#.:. . . .#.%.&. .&.&. .>.#.#. . .#.,.-.*.&...c ,.,.#.,.&.,.x.x.i.y.x.i.d.d.d.d.c.e.9.$.! ! ! O.",
"8.2.4.O.$.$.$.$.#.$.$.#.$.>.=.#.#.#.&.>.#.#.#.#.&.#. .#.#.[ #.#. . . .o. .#.&.o.#.$.$.$.t.y.d.g.2.I 0.a.d.y.h.h.f.r.d.9.3.2.2.3.",
"n.r.s.h.d.h.h.k.v.v.i.y.t.*.*.$.*.' #.*.,.,.&.*.,.,.>.#.&.$.#.#. . .+.#.&.#.$.$.;.4.d.h.h.s.h.d.0.3.a.0.0.0.f.h.c.c.f.r.r.6.6.n.",
"B.v.v.V.v.b.V.n.v.n.v.v.f.f.g.y.9.$.9.4.9.t.9.9.*.9.O.*.9.t.t.t.4.$.4.y.i.w.y.y.a.s.e.e.r.w.e.7.s.f.b.h.f.f.f.j.c.f.f.k.s.r.w.w.",
"r.w.w.w.e.j.s.e.0.0.5.4.0.0.5.0.0.0.0.4.4.4.@.o.#.o.! +.' o.#.$...^ 4.O.2.@.......! ......! o.X.@.$.@.X.^ @.$.4.9.0.0.i.0.3./ ~ ",
"3 3 4 4 ; ; ; ; , > > > > & # : - - , , , ; > > - > - > & & & & % : & # # > > > > > > > & > * < > , < , < , ; ; ; 5 3 3 9 q e q ",
"; * % * * * * % * * * % % $ % & * % & & & * , ; , 2 2 2 , ; ; ; % & * : & % : ; * ; * ; * * : 2 , , , * ; , ; ; ; ; 1 % ; ; ; 1 ",
"L [ #.#.-.#.#.,.#.-.;.#.&.&.<.<.,.&.&.$.#... .#.} W W '  .[ #.;.<.u.u.-.+.E L ' #.,.-.#.-.#.' ' ' ' o. .o.%.-.,.,.#. . . . .' ] ",
"B B m Z S _ ]  .,.-.[ { &.,.,.#.<.<.>.-.:.` ` ' ' ! Y X.X.4.2.( 0.a.d.4.t.1.4.@.$.#.#.$.#.[ ..#...O.4.X.+.' [ #. . .` _ _ A A V ",
"A V b p l H K J L J W ..! ! ~ ~ O.O.$.O.@.O.2.4.4.5.w.w.w.w.a.3.q.a.r.f.d.0.@.X.......+.o...$.o.+.X.X.#.o.#.o.$.#.' o.#...#.Z k ",
"[ #.o.[ o.+.! X.....~ X.O.1.~ ~ ~ / 2.3.2.3.3.1.5.s.e.w.e.s.f.h.d.f.a.d.y.y.4.4.t.$.#.+.#.$.o.@...@.y.4.$.3.4.0.y.0.0.4.y.4.y.4.",
"2.$.....X.! ' +.O.....O.@.2.9.4.0.4.5.9.2.4.2.O.4.2.2.2.2.3.2.2.1.4.2.2.5.4.O.X.....#.#.o.$.4.9.4.9.$.$.4.4.4.4.9.0.3.4.$.$.+.' ",
"2.9.4.4.2.4.4.X.~ ~ T ~ ~ / O./ 2.5.4.4.4.4.9.4.4.$.$.4.O.O.@.4.4.4.a.d.y.0.2.y.4.$.#.4.9.9.O.O.$.9.4.y.4.4.4.$.4.$.$.$.+.' ' | ",
"4.0.w.0.3.2.2.0.w.e.w.d.0.0.0.O.+.+... . . .}  ... . . . . .#. .+. ...+.O.4.$.2.O.4.2.4.0.3.*.4.4.9.4.4.4.4.4.o.' #.o.#.o.o...o.",
"' #...' ..' .. .o.....o...#.o.#.#.#.[  . . .[ { '  . . . . .[  . . .o. . . . .` { ' ] ] ] ] ] ]  . .| [ [ [  . .] ' [ #.#. . .' ",
"' ' ' { ] { ` ] ` ` ` ` ' o.o. .o.#.#. .%. .[ [ [ [  . . . .:.|  . . .|  .=. .=.| | | =.| | | | :.|  .| |  . . . .#. . .&. .[ } ",
"` ' ` ] ` ` ` `  .E ] `  .' #.' [  . . . . . .%. .&. .%.:. . .%.| {  . . . .|  .| =.| | | | | %.| | | ] ] '  .[  . .[ [  .[ ' ] ",
"' ` W ` { ` ` ` ` R ` [ '  .' ` '  . .%. .%. . . . . . . . . ._  .=. .|  .| =. .|  .| ] |  .[ ] ] ] [ ] ' ' [ ' ' ` ] ' ' ` ` ` ",
"` ` ` ` { ] { ` ` R W '  .[  . . . .&.[  . . . . . . . . . .| ]  .|  . .%.%. . .=.| ] { | %. .' |  . .] W ] ]  .}  .' ] | ] [ ` ",
" .[ ' ' ' } { { ` ] '  .#. . . . . . . . .| %.:.>.%.%.%.:.%. .%. . .:.=. . . . . .| [ | ]  . . .|  .'  .[  .` [ [ | [ [  .[  . .",
"$. .o.[ ' [  .` } } _ ` =.>. .%.=. . . . .:.:. . . . . . . .%. .%. . . .:. . . .%.| ` ] |  . .[  . .[ '  .' ` { [ [ %. . .#.#.o.",
"#.#.[ [  .[ } ` ` '  .] | ] ] ]  .| {  . . . . .#. . .%.%. . . . . . . . . . . . . . . . . . . .}  . . .[ ] ] ] | | ' E W  .[ [ ",
"#.#. .#.#.#. .' '  .` ]  .]  .|  . .] ] ` ` ` ` E ` ` ] E ] R ` ] R ` _ ` ` R ` ` ` ` ] |  .[  .{ } ] ` ] %.] [ [ ] ] ] ` ' '  .",
" . . . .#.#.#.#.#.#.| [ [  . .` _ _ ] ] |  . . . .%. . .{ } |  . . .%.>.:. .>.>.#.%.%.&.%.&.[  .[ } ] ' | [ %.`  . . . .[ |  .[ ",
"[  . .[  . . .[  . .%.|  .#.#. .&. . .#. . .&.#.&. .#.%.>.-. .%.>.>.:.%.>.>.>.&.&.&.%.%. . . . . .[ [  .' [  . . . .{ ` ` `  .] ",
"] [ ] | |  . . . .%. . . . . .&.#.*.,.*.,.*.t.&.%. . .#. . .=.=. . . .-.#. . . . . .%. . . . .%. . . . .| [ |  .] ] ` | ` `  .] ",
"] ' ] ] ` | ] ] |  . . .#. .#.#.&.&.*.&.*.,.,.&.#. .:. .-.%.:. .=.>.%. .&. . .#. . . . .%. .:.|  .|  . .] ] E _ ` _ ] } ] | { } ",
" . .[ [ %. .[ %. .&.#.*.$.&.&.&.#. .#.#.#.#.#. . .[  .[  . . . . .|  .%. . . .%.&. . . .%.| =. .[ | [ | ] ] ] ] ` ` ` |  .} {  .",
" .| %.%.%. .$.*.9.t.y.y.i.i.0.9.*.#.*.,.*.t.4.9.t.t.*.$.*.$.*.t.,.*.#. . . . . . . .| %.| | | |  . .| [ | E E R ` `  . .'  . . .",
" .#.&.o.[  .o.&.*.9.t.z.t.y.9.t.t.t.4.t.t.t.t.#.#.,.*.*.*.$.#.#.o.&.*.#.&. .| | | | | |  .%.| ] |  .| | | | ] R ] ] | ` }  .]  .",
"&.o.#...[ W [ ....o.o.#.o.o.[  .] | | | ]  . . .} { '  . .]  .#. . . .] | %._ R _ ] | | | ]  .] | ] | | | W W [ ] ` ] ] } ] ]  .",
"W E W ' [ o.&.$.*.O.@.^ ..o.$.$.*.o.#.$.#.*.#.#.o. . . .| ] ] | | ' ]  .] ` ` ] | | | ] ] { ] ` ` ` ] ` ` ] ` ] ] ` ` _ ` ` ` ` ",
"#.#.$.o.#.2.*.o.$.*.$.$.*.#.*.$.O.' ..o.*.$.$.#.#.'  .o.[ #.#.#.$.#.#.#.#.#. .[ ' [ [ ] [ [ [  . .| `  . ._ ] ` ` ] [ | | [ ' [ ",
"' ` ` ` ' ] ] ` ] W ` ' ' W ' ..o...3.q.w.0.e.e.a.0.0.0.y.d.d.r.f.d.e.g.y.w.t.$.2.$.$.$.$.$.4.o.! J C S ] | |  .] { ' | [ ] ] ` ",
"{ ` ` ] ` ` ' ` ` ` ' ' o. .o.$.2.3.3.6.3.) 3.) q.8.w.w.w.w.0.w.w.q.s.h.h.s.0.3.3.1.( O.2.X.2.X.O.O.W ] ' ] ] W ` ` ` ` ' ' ' ` ",
"..@.^ W ' o.@.[ ' ! $.9.0.2.3.9.8.0.w.w.w.6.f.j.f.j.f.s.e.e.f.s.s.s.r.r.s.j.6.( r.s.s.e.w.0.0.w.0.0.0.8.2./ O.O.^ 4.0.9.3.3.2.4.",
"4.9.9.9.4.y.d.f.d.3.2.2.3.3.0.w.q.3.3.3.w.a.s.f.f.r.w.w.s.s.e.e.s.r.w.e.v.s.3.U 3.s.w.e.w.q.q.4.2.O.O.~ ^ ^ 2.8.8.( 0.a.8.0.3.8.",
"= 0 z c r r y r w w a D F z s u a s w a w s s z a l c n n G G T T G F d t 8 8 7 9 q 9 9 9 4 $ ; 5 5 5 5 5 6 q i p e p a p i i g ",
"o o O o + + X X . .       .   . X X X X X o X + X o o o X + + @ X o X X         . . . . . X X . . . X X o . o o o o X X @ o o o "
};
