/* XPM */
static char *d226f1a1386944aacaf3d49c7acae3e2c1ufXFORwMuKO4lJ[] = {
/* columns rows colors chars-per-pixel */
"64 64 95 2 ",
"   c #998463",
".  c #A08566",
"X  c #A58B65",
"o  c #A88D66",
"O  c #A18768",
"+  c #A58E6A",
"@  c #A98E6A",
"#  c #AC9267",
"$  c #A7926E",
"%  c #AD936D",
"&  c #B09267",
"*  c #B2956D",
"=  c #B5996E",
"-  c #B99B6D",
";  c #AD9472",
":  c #AE9976",
">  c #AD9679",
",  c #AD9979",
"<  c #B19673",
"1  c #B49A74",
"2  c #B99D75",
"3  c #B19779",
"4  c #B49D7B",
"5  c #B99E7B",
"6  c #BAA076",
"7  c #B6A17D",
"8  c #BAA27D",
"9  c #BDA87C",
"0  c #C1A67F",
"q  c #B69F81",
"w  c #BA9F81",
"e  c #B6A282",
"r  c #BBA583",
"t  c #BDA985",
"y  c #B7A68A",
"u  c #BCA689",
"i  c #BDAA8B",
"p  c #BEAD92",
"a  c #BFAF98",
"s  c #BFB194",
"d  c #C1A784",
"f  c #C2AA85",
"g  c #C2A789",
"h  c #C2AC8C",
"j  c #C5AC8D",
"k  c #C4AF8E",
"l  c #C8AF8E",
"z  c #C5B08B",
"x  c #C6B18D",
"c  c #C4B08E",
"v  c #C9B08C",
"b  c #C9B08F",
"n  c #CAB28F",
"m  c #CAB58F",
"M  c #C1AE90",
"N  c #C0AC92",
"B  c #C6AF92",
"V  c #C0AF94",
"C  c #C5AF94",
"Z  c #C8AF91",
"A  c #C8AF94",
"S  c #C2AF98",
"D  c #C3B092",
"F  c #C5B291",
"G  c #C7B292",
"H  c #C1B094",
"J  c #C5B094",
"K  c #C5B396",
"L  c #C7B496",
"P  c #CAB291",
"I  c #C9B393",
"U  c #CAB397",
"Y  c #C9B697",
"T  c #C9B897",
"R  c #CDB894",
"E  c #CCB897",
"W  c #C1B298",
"Q  c #C3B09A",
"!  c #C3B19A",
"~  c #C5B298",
"^  c #C7B398",
"/  c #C7B498",
"(  c #C5B49A",
")  c #C7B79C",
"_  c #C9B499",
"`  c #C8B59F",
"'  c #C5B89E",
"]  c #CAB998",
"[  c #CBB89A",
"{  c #CBBB9A",
"}  c #CBB99C",
"|  c #D0B997",
" . c #D1B99C",
".. c #C9B8A0",
"X. c #CBBBA1",
/* pixels */
"k e r ~ r u Q p Q 4 D i u i ~ ` H 7 e k _ t t M 1 u J 5 3 r J h J g g g 7 k f t x t P x 8 2 h P f Y h f 8 r t k P U 2 k U J J J ",
"M e t ~ e u ~ M Q e S t u i H J M e e M _ t t i < u k 1 3 q M M M k t r r h f t h g Y R m d 8 p b Y b x d f t B Y t t F Y L J V ",
"M 8 i / 7 i ` M D q H M p p M ~ M r e M _ t u t 3 i i ; 4 5 t V M M t 6 t t f t B g Y ] R P r 8 k Y T Y t f r k U 6 M x ` J C V ",
"k 8 A _ 7 p ..J H e Q H p p p ~ M r e k _ u u f 3 k r * 7 1 7 i k M r 7 f h h i z r _ ] R T F 2 2 x ] Y h g d x h 6 / e t 7 r i ",
"k r x F 4 p ) B H r Q i H p i ~ k 7 5 k Y w i t 1 i 8 * 7 1 4 p k F t 7 g f t h b 8 Y ] Y Y Y h 4 r ] / P k g D t k k h 8 e r e ",
"k t F F 7 H ..U J u S u s p i Q B r e F _ r M i 4 U r = t 7 3 p J / t t g g f f F r Y R Y Y Y U h 6 Y F Y B k D e k t 7 5 e 4 7 ",
"f t U k 7 Q ..P F t S e ~ p p H i 7 5 k U 5 k u 1 J r % t e ; i J J t t t f f d F e P | Y P P b P 8 b k h k k p r k f 8 d e , 1 ",
"i t M k r / ` U M r B e Q M M M g 6 5 M D 5 C t 1 C t * t r < i H J t k g f h d J 8 P R R b x F R 0 Y f k x k i 7 k B 8 7 e 3 7 ",
"k t J g e ` ..F h t M 5 / B V H g 7 7 F J 7 D t 5 C h 1 i i < u H H t H u B d 9 b 7 B Y b l f f  .f _ 9 h k t e 5 7 g g 7 r 7 g ",
"i t / u r ` } F P t H r ) D M k r 5 e F k 5 D t 3 i t $ u r % y p M h H u g f 8 J 8 g R b f 0 9 _ f Y f P k g t 5 1 1 7 1 4 h M ",
"p i Q 8 f ` ..U x t H 5 ] M t M 8 7 7 B k 5 / i 1 p t $ e e * 7 p C k k i h h 8 _ d f Y R f 8 2 Y h b f F x h H p 4 < 1 r r t k ",
"h k / r t ` _ F k i H 5 ..i e i r 7 r ~ h 5 D M 5 H t @ 5 5 * 5 V J k k t t M r _ d g P R f 2 2 P Z h h P b f H 1 : @ X * 1 k x ",
"C B H 7 r ..` P k t F 7 ` p w g e 5 t C g 1 B M 3 p i @ ; 4 @ 3 V J k t t f H f Y r k R R g 2 = f P h k P b t F 1 ; ; o $ 7 P J ",
"B ~ M 1 t Y ~ P k i H 7 ` k 5 k r 1 u F i w ~ J e p M ; % 3 * 4 M ~ B g k f F h P 7 U _ b 8 1 = t P f b P / f ] 1 3 ; * * e M L ",
"k J g 4 8 Y D J t p p e Y M 7 M u 7 t D i e / J u t F < % < * < k J M t k t L F U 7 Y R 0 2 2 2 d b h U R R d Y < ; ; 5 1 e k L ",
"B ) r 4 e J M J t i t e J h e k r 1 r M r 3 H M k r H 7 3 % # $ r F h 8 F r Y k P 7 Y R f 6 - - d P f b _ ` h R 7 ; > t * 8 J ~ ",
"k M t 7 7 J g J t M r r V i e k t 4 t M r 5 H M M r H t 5 $ o @ 4 k h r x t Y k U 8 U ] f 8 - - f P l P Y | f _ t 1 > M 1 g ~ H ",
"g h h e 7 V r J r M r i M i r k t < p P t e C u k 5 h M 3 $ + + < t x t P d _ k Y 7 F _ h 8 6 - f P f U Y ] h Y F 7 ; M 4 t U D ",
"h h g u 7 M r F r M t M M M r M u 1 g C t 7 C r k 5 r e 3 $ + + ; t D f F t L k _ 7 F R m f 8 - f Y f Y U  .f Y U i 3 M e g ~ F ",
"t k t g 8 M r F r i r H J M e F r 5 g F u r M e k q e ; ; ; @ @ 3 g D g k t z f ` r h _ b b 8 6 h Y f l F ` f P J ~ r D 7 h _ ~ ",
"g k 8 h r M r F g i 7 H J k 7 M r 5 k J t h k e M 5 7 $ ; ; + % g t k B k d g t _ r d Y Y R 0 6 x Y f B B _ h x F ` t J 2 k Y ~ ",
"r k d h t M e J u i e H M k 5 h r 4 k J r i k e F 4 r 3 ; 3 r e r 7 8 k C r r t Y 8 8 b Y Y h f z Y g B B F k f B H t _ 1 g L F ",
"8 i g k t g e J g M q i k M r B r 4 g F 4 u t e J 3 8 % 4 k r r q < 6 t t f e f Y r 8 b Y Y P P b U h k F Y k t k / u ` 6 h ] P ",
"t g t t g r r H g M 5 u i g e M e 2 g F 5 i u t _ q < < t i e e 3 * 2 7 u k 5 k P t 6 h L R R P Y U x k F F J g h H t ..6 h _ U ",
"U F r t h r t H u M 4 t u r e M e 4 t P w p y M t u 3 r k t 5 e e 1 2 r 6 x 5 g k g 7 g R ] m P Y h x x F k Y k H L i ` 7 g ` J ",
"_ H t i f 7 g J i i 4 r 7 e 7 D t 1 r F 4 u q H e u 7 1 t M u 4 t f f k 4 Y 4 k t F 6 r Y ] ] ] Y 0 F h F h T k F _ F ] 7 p } Y ",
"~ g r t g 7 i Q u u 4 4 e 4 7 M i 2 7 x 5 t q k 5 u f 2 < h C e 5 h f d 5 Y 7 k r U 8 8 P ] R Y Y r P h h f R k B J k ..e F } Y ",
"_ g 4 6 7 5 M Q u t 4 : r 5 q M i 2 6 k 7 d e M 4 g k 2 * t F t 4 7 r 5 5 Y 5 k e U r 7 b R ] Y F e F k h k Y h k F x ] r B } ] ",
"_ t 6 6 2 7 D H i u 7 < r 4 7 k i 1 5 h r t 7 k 1 u k 2 & r F g 5 5 k g g L 5 h 7 P d 8 B R } Y J t b t k h U k B Y h ..t M ` ..",
"` r r 8 8 t J H h i r < f r % 4 t < 1 t u r e M 5 t x 2 * t J k e r g 7 t _ 5 t r Z f 7 g Y R Y F 8 k t M k _ t J L k } t k ....",
"` r ; 7 r g ~ s k i r < r @ o 1 7 = 1 g u u q i 5 i F 8 & e U B g i 5 1 7 J 5 t r t P 8 d P R Y J 8 F k k t _ r J Y k ..k J } ..",
"` r   4 e t / D M t r < 4 +   < r < 4 t i r e t 5 M k t = 2 J h h r 7 e r F 5 r t u F 5 5 h x F B 7 D k k t R 8 Y _ B ..F H } ..",
"a i e e < t J p k e 7 ; 4 5 + # t * 1 g k t u t 5 M 7 g 1 < F k t 5 t h t M 5 r t r x 5 1 7 r k g 7 D k F p _ t Y _ k ] M M ` ` ",
"Q t k t ; u H F i 5 4 > , B t r g 3 1 u k t t t 5 k 5 t e 3 k k t 4 J F k D 4 7 r e x 6 = 1 1 8 r 5 ~ h k g Y t _ _ F ..H D ` ` ",
") h M M 1 t D k M , : 4 : Y J F h < < t k t u t r i 1 e g 3 u M u r J J J F 4 t r 5 D e 1 1 1 5 7 4 Y k B t Y t ] Y F ..M M / ) ",
") k H D 7 t M k i 1 ; i 1 Y L J t < : i D r u t r r = 3 k 7 5 r e i J ` / F 5 7 r 5 D t 1 1 1 2 5 5 J B k t _ r ` x P ` u M J ) ",
") k H s r u M t t $ 7 i 4 _ Y U t < 1 i F 7 i e i e 1 * k u ; 3 5 H F _ ` ~ 5 7 g 4 M t = 1 = 2 1 5 Y k F k _ f ` k ] ..t H / ' ",
"' k Q p r r M t t ; i i e U Y P t % 3 M F r M 7 x 7 1 * h k 1 1 7 H J _ H _ 7 e i 1 k k 2 = * < < r J r k t U g ` f / ) t J / ..",
"/ i H p r t i g r 4 i u r D D P t ; < M M e M 5 H 1 = 1 t F 4 7 r J B J i J r 4 i 1 t D 7 < < 1 < t F r k g U h ..t L ` i J _ ' ",
"/ k H p 8 t t h e e t r u h k J k ; % M M 7 D 4 M 1 = < e F t t d J i h e B r 5 h 1 t J g = * = 1 t L h D k F M ` i J / h V ) / ",
"/ g x M 8 r t k e e e u i r g J k 1 $ k B r M 5 k 4 2 6 7 U F x x F t t 5 t t 1 k 5 t J k 4 = = = r F i k i J k _ t M J g i / / ",
"/ t p k 8 r t k e t 4 t h 7 r J k 1 ; t M r M q k 1 8 r 4 U U L / J t u 1 7 t 1 g e e J F r 1 1 1 t J i B t B ~ Y t g J k h J / ",
"J 8 k k 8 t h i e k 4 t k 4 4 H g < < t k r D q k 1 r 8 1 t J L / J u d 2 7 t 1 r k 5 i F k e e 5 M J M M k M ` M g t / B g J J ",
"H r k i r t k k e B 5 g p 6 : M t ; = t M r M e t < 8 6 1 r / J L J t t 5 6 g 5 7 M e 4 F U P h t F V M M M t _ h k t ' p t D J ",
"p 7 i k r t M x r C 4 i i 1 : M r * % t k t D q t 1 6 2 4 r L J / J f t 5 5 t r 7 k B 1 t U U P U J p k k F 8 _ g k r / t r M J ",
"V 8 h i 7 g D D r H 5 i i 4 1 i r % # t k t i 4 r < 5 1 8 t L H J F h t 3 3 t t 5 t U 8 4 k _ _ ` / V B g F g Y t g t _ t 7 H H ",
"J t k k r k M s r D 4 i p 4 4 p r < * r k t M 5 M 1 6 2 r e F ~ Q M k 8 < 3 e M 7 5 F F 6 7 r M ` _ i h t J d J t r t _ r t H V ",
"J 8 k k r B M M r k 4 V p 7 1 t t 1 * r M t M q D < 6 2 d 5 F U J M g e * ; e M k 3 i J Y k k t h V t M r F F k h e h _ 7 t F M ",
"J 8 x k r D i H i M e p p 7 4 t 8 < * r M t k 5 F 1 6 6 f 1 k F J k t r ; ; t k F 1 4 F _ ] R Y g 8 d p t k ` i k e b Y r h J J ",
"H 8 D i 7 i u M u M 4 i i 4 7 f 7 1 < r M 7 M 5 k 5 6 0 f = k D J k g r 3 % e t J 6 1 4 i r 7 k ] k M k h h _ k k 6 P Y t M J / ",
"M 8 Q M e k u H i M 4 i p 5 7 r 7 1 1 r F 8 B 7 h t 5 f g = h F F k t r 3 @ 7 t J r * # 1 1 r 8 d Y ~ t t x _ P D 6 Y F e B Q L ",
"M d H F e M r H i k 5 i ~ 7 7 t 7 1 1 r M e B e t M 1 k t = t F P k t e 4 @ e 7 J g * # * 6 R ] x 0 f r t P g F B r R k r J J Q ",
"B d H J e H i H p p e r J 7 q d 5 1 < t M 7 F t r F 1 8 8 - i F k k u e 4 ; 3 e F M 1 * & g U k t k 5 r 0 L f F k r _ u r J J J ",
"F d H J 8 D u H p t t 5 H e 5 t 7 1 < r i 7 H t 5 M 8 2 2 2 k F k h t 7 5 4 < 7 M F 6 * = F t 8 B 4 8 7 h k F F h t _ t t J D J ",
"F f H F 7 M r p a i M 3 p r 5 t 7 1 1 e i 7 D f 5 p t 1 1 6 k F k k t r 3 t 5 8 M B f 6 d U 6 t P @ o 4 J t F t t t _ 8 i J D L ",
"F g H F 7 M t i V M M e e r 5 t r 1 1 r M 7 D h 4 p k 4 1 6 M J M t i e 4 ; t r h h t k F J 7 r B O X < k d k t t h _ 7 y D D Y ",
"M h H ~ 7 p i i p y t u 3 e 1 t 8 1 1 r k 5 M k 5 t k q 4 r k D D t t 5 + 7 t r g f f h P _ r 5 r t 1 u t k g F t k / 7 k J H ` ",
"M k H H 7 i p y p q 5 u 4 r 1 r d 1 1 8 F 5 k F 5 e i 5 1 r F F F r 4 5 . k t f h r h B Y Y k u t i u u d k t F t F _ r M / J / ",
"k t D D e p Q y p q 5 u e e 4 u f 5 6 8 H e i F 5 r t 5 5 g F F F 7 g r 1 e t t k 1 r P P P P 7 h r u u g h 8 D r F H 5 k J J / ",
"k t i i 7 p H y p u r 4 e e e t g 4 6 e D t t F 5 u e 4 e M F k F r h r t k M f h 4 5 U R Y U P B g t t B P f P 7 J J 6 M J J / ",
"i r i i 5 y a r i e 3 ; u 7 r M x 5 7 r L t i D 3 h 4 q u J F h F u g r r P h r k 5 1 f P F P F t t k t g b r F 8 Y H 7 J L J J ",
"h r u M e e p y i 3 , u i 7 u J M 4 e t _ i i D 5 H t 5 e H J k k t f t f x g f P 1 1 5 f h g k 5 7 r r r g r k 6 P k 1 k J J J ",
"k e u p r e p y p , u Q t e k J k 4 r J _ t u h 3 M J 5 5 M J k F t k h t b f g P e 6 1 2 b g g 6 8 r t t t g h 8 _ t 6 J J J F ",
"D e e J u e p u V 4 p p h t F ) M e u J ` k t B 5 M ~ e 5 i / k F t t g 8 b d t P t k 5 1 k b k 8 h h g 8 t g B h _ t g / J J F "
};
