/* XPM */
static char *_b280b5c5bde49c0a086fd4fc7c7853cfiQhrgcRv2DJoCg5[] = {
/* columns rows colors chars-per-pixel */
"64 64 160 2 ",
"   c #242F1C",
".  c #27311C",
"X  c #2C351D",
"o  c #2D3C1D",
"O  c #31371D",
"+  c #313D1D",
"@  c #242E21",
"#  c #263221",
"$  c #2B3521",
"%  c #253A24",
"&  c #2D3A23",
"*  c #2D3629",
"=  c #2D3B29",
"-  c #333720",
";  c #323D22",
":  c #383D25",
">  c #323E29",
",  c #3A3F29",
"<  c #36401E",
"1  c #39441E",
"2  c #3E4B1D",
"3  c #2E4125",
"4  c #2E4029",
"5  c #344223",
"6  c #3A4523",
"7  c #364924",
"8  c #3C4A22",
"9  c #344329",
"0  c #3B4529",
"q  c #364829",
"w  c #3C4B29",
"e  c #3D5122",
"r  c #3E5129",
"t  c #424C1D",
"y  c #47531E",
"u  c #47581E",
"i  c #424D23",
"p  c #4A4F23",
"a  c #424629",
"s  c #434D29",
"d  c #4A4E2A",
"f  c #445323",
"g  c #4A5524",
"h  c #465A22",
"j  c #4C5B24",
"k  c #45532A",
"l  c #4B542A",
"z  c #465929",
"x  c #4C5B2B",
"c  c #515B25",
"v  c #51562B",
"b  c #525C2C",
"n  c #555D2C",
"m  c #545D2E",
"M  c #5A5D2C",
"N  c #4A4F31",
"B  c #465332",
"V  c #4A5131",
"C  c #4A5331",
"Z  c #4D5331",
"A  c #4E5431",
"S  c #4D5532",
"D  c #4A5234",
"F  c #4E5B31",
"G  c #4D5C31",
"H  c #535631",
"J  c #555C31",
"K  c #575E31",
"L  c #545D32",
"P  c #5A5D32",
"I  c #595E39",
"U  c #625F2D",
"Y  c #625E35",
"T  c #4D6122",
"R  c #4D6820",
"E  c #4E612A",
"W  c #536424",
"Q  c #546922",
"!  c #53622F",
"~  c #54622C",
"^  c #54612E",
"/  c #52672D",
"(  c #5B632D",
")  c #55692B",
"_  c #5B6B2D",
"`  c #5B712D",
"'  c #4F6131",
"]  c #4F6232",
"[  c #4E6731",
"{  c #526231",
"}  c #556331",
"|  c #556332",
" . c #566531",
".. c #566731",
"X. c #5D6231",
"o. c #586431",
"O. c #586731",
"+. c #5C6531",
"@. c #5C6433",
"#. c #596734",
"$. c #5C6535",
"%. c #5F6534",
"&. c #546B31",
"*. c #566A33",
"=. c #566C31",
"-. c #5D6831",
";. c #5C6B33",
":. c #586F31",
">. c #5F6C31",
",. c #5F6F36",
"<. c #566239",
"1. c #5B6639",
"2. c #566838",
"3. c #5D6C3A",
"4. c #5E7133",
"5. c #61632C",
"6. c #60642E",
"7. c #69672E",
"8. c #636C2E",
"9. c #616435",
"0. c #626434",
"q. c #626534",
"w. c #616735",
"e. c #656734",
"r. c #6A6735",
"t. c #616B36",
"y. c #656A34",
"u. c #646936",
"i. c #626C34",
"p. c #646C34",
"a. c #656D35",
"s. c #6A6C35",
"d. c #656439",
"f. c #656539",
"g. c #6A663A",
"h. c #666A39",
"j. c #646C3A",
"k. c #666F3C",
"l. c #6A6F39",
"z. c #6B6D3A",
"x. c #706A35",
"c. c #726E3A",
"v. c #627335",
"b. c #637036",
"n. c #657234",
"m. c #697134",
"M. c #6B7335",
"N. c #687236",
"B. c #6C7836",
"V. c #647138",
"C. c #64713A",
"Z. c #6B703A",
"A. c #6B733A",
"S. c #6E743D",
"D. c #6A7939",
"F. c #737336",
"G. c #72733A",
"H. c #73793A",
"J. c #646940",
"K. c #6D6E41",
/* pixels */
"> > : 9 0 s s N d d 0 0 0 0 w z x ~ +.+.$.X.e.N.b.:.&.~ ' l 0 9 ; ; 5 6 w k x x K K l s 8 6 5 6 5 0 w 8 k k l l E E k s w w 0 0 ",
"> 5 6 0 s Z V V s a 0 0 w s l x O.y.w.y.6.w.Z.V.>.=.[ x k 5 6 ; ; ; 6 0 k j m x m b l i 6 5 5 5 6 1 8 k k l l g k k w w 0 9 9 5 ",
"> , 0 s V d d s s s s l F m O.y.p.y.y.-.>.b.,. . .x x k w 5 ; $ ; 6 w k j m x ! { x f 8 6 5 < 5 2 2 i l x l k k s k 0 9 9 9 9 ; ",
"0 0 s D d d d l A F m $.p.p.N.k.y.w.m O.-.#.! x w s s 8 5 & $ : 0 s k x l l } O.m i i 8 ; ; 8 2 y z x x k l k k 8 0 ; 9 9 > > ; ",
"d i N l d d v K w.w.f.h.z.S.S.y.m x  .} m k 8 w k s 7 ; & ; 6 k k k x k s b K l 8 6 5 - : i f y z b l f l k 8 5 ; 5 9 > > > : 0 ",
"d l H H H m P f.h.s.z.Z.p.p.O.m x ' x l s i i s w 5 ; > 5 w l l k x l l l l s 0 5 ; + i i f f x b m b l k 7 ; ; & $ $ > > 9 0 s ",
"H H K $.y.e.Y g.z.z.p.$.~ x x z x F s s l k i 6 ; ; ; 0 s x x l l l l k i i 6 ; 6 s k g z h x b c b l s 5 > > $ $ & & : , 0 d l ",
"P w.z.G.z.f.w.y.p.+.x x k k z x F l s k k w < ; ; 6 s l l l l k k l s 6 - ; 6 s s l j z g x m l i s 6 : > & $ $ > : 0 0 s d v K ",
"s.G.F.c.P K K ~ l s k k s s x l z s k k 5 ; ; 0 0 z x l l k l f k w 5 - : 0 s l l l h x x l s s 0 ; & & $ $ > 9 0 s d d l P Y U ",
"c.F.r.P K x l k s s k k s l z s 0 w w ; : 5 0 s l x m l s s i i 7 > & 0 s l b b x x x E x s 0 5 & > $ $ $ : 0 d d d l P 5.r.x.g.",
"w.M m H l k s s s s f s k k s 0 6 5 5 9 0 w l x x b x i s i 8 6 ; : 0 s l m ( E j j z k w 9 > * & $ $ > 0 a d d H P e.r.g.c.z.r.",
"P K H l s s s s w s s s s w 6 5 6 0 w w s x k k l l l l i 8 7 ; X 0 s v ~ ( ~ j f i 7 9 ; > > & $ > q s s d v $.h.z.z.y.f.f.w.w.",
"H l s s s w w 0 0 w q k w 5 5 0 s s k x l k s s k x j f 8 6 ; X : s v b m b j f 8 5 > & & & # $ : s l Z H $.w.w.h.y.f.e.x.7.P v ",
"s 0 0 w w 0 6 5 0 0 5 5 5 0 8 s l x b k i q s k x W f f i 6 X : s g m ( x j f 7 > ; & & $ # > 6 s Z A K w.y.$.w.z.g.r.s.7.M v l ",
"0 w s w 5 ; ; 0 5 5 5 w s s l x E z k 6 0 w k h W u h 8 8 $ : 0 l m -.b j y 6 ; > > & # & : a d A v K y.X.K e.Z.z.g.w.M v s i s ",
"s w 5 5 & & o 5 7 r r w f x x l k w 5 0 0 s x T j u f 6 ; > 0 s m -.~ j y 8 ; ; > & # & , a v H v K O.K X.p.Z.z.e.X.O.l d d s q ",
"0 : & $ # > 5 w k z k l x x k s q 9 9 0 w l j j j f 6 ; > , d ! -._ b i 6 ; ; & $ $ : a d b P K K K P w.Z.z.h.w.f.w.P g s w w s ",
"& & # & 9 q k k z x x { z k w 9 > 9 w k k x j j j t 5 9 > a b i._ x i 6 ; > & $ & 0 s b P O.K H K w.z.s.z.z.g.f.Y H s 0 0 0 0 9 ",
"& $ : q k z ! / / { m x r q 9 > > q s l x ~ j j y 6 w , a x >.n.~ f 6 ; ; & & > 6 d M X.O.K b K w.S.z.z.z.f.+.H l w 0 0 0 5 ; & ",
"> 0 s l ~ 8.n.>. .x l k 5 9 & 9 w k l b ( x j g i w 0 0 l ( n._ l 6 : 5 & & > 0 d M +.-.} H X.z.z.h.h.V.$.A s w q 9 0 9 : & $ & ",
"i l b +.8.s.p.&.m x s 6 > & 9 w k l m ! x g g f i w 0 k ~ >._ m i 5 5 > & 9 a v ( p.p.#.X.w.h.s.p.-.#.F B 0 0 0 0 > ; > & $ & 9 ",
"b m w.p.s.i. .! x z 5 3 & 5 w k k K  .~ j g f i r 0 w x ( _ ~ s 5 5 5 & 0 s v w.z.p.w.s.N.h.y.-./ F B w 0 0 0 > & & & $ $ > 0 s ",
"b ( p.N.>. .x z k w > & > w k l K  .-.b g g f f s 0 s x _ ~ k 0 q 9 & ; 0 d X.s.s.s.z.N.s.w.O.F B w 0 9 > > & % & # $ * 9 w i A ",
"X.N.N.-.! g s w q 5 ; ; q w r x  .>.>.c f f f k 0 s l ~ _ l w 9 0 > ; 6 s ( N.N.y.r.s.p.+.~ x k 0 0 9 * * $ $ @ $ & > 9 s l l l ",
"$.-. .x k 8 7 7 ; & 5 7 8 k x x &.>._ j h f f s w k l m m s 9 9 > ; 6 d M 5.8.s.e.w.( { x k w q 9 5 = $ # @ # & > 0 0 d s l v } ",
" .m z w 0 6 5 & ; 5 6 8 f z !  ._ ` c u h k w 0 s l b m l q 9 > - 6 d m ( p.N.6.( ( x k w q q q 9 = # @ $ > > 0 0 d s l l x K } ",
"k i 6 6 5 5 3 ; 5 6 6 e x / ) m W W g h f s w 0 6 g M v s 0 9 > 6 l b M 5.8.( b M l w q 9 q 9 > & @ @ & 9 w 0 k A l l b K K } x ",
"0 5 ; ; ; & + 5 5 6 e x ~ _ b W W j j f i k 0 1 i l v k w 0 > 0 s x ( 5.5.M b x k w 0 q 0 9 & $ # X 5 q s s b } m b b b x x l d ",
"; + & $ & ; 6 6 6 e h W _ ! W Q T g f i s q 6 8 g v l s 0 9 0 s x b +.M v m x k w q q 0 9 $ @ # & 9 s l v M +.-.X.~ x x l d d 6 ",
"X $ $ ; 5 6 1 2 2 k k E / Q Q T h y f 2 w 5 6 f b l d 0 9 > w m w.-.( m b l g q 0 0 q & @ # $ & 0 s l l P X.i.n._ x x s i 6 5 ; ",
"X X 5 0 6 6 2 2 2 i l ~ h R R T u e 8 w 5 5 t l b l w q > 0 b $.y.X.( b g i 5 0 q 9 # @ # $ > 0 k x K M +.+.( _ ~ l s 2 < ; & & ",
"> 5 w 7 6 6 8 i 8 x x j j T T u y 2 w 6 ; 6 g b b w q 0 q l $.w.w.( b i 6 5 9 0 > $ # $ & 0 w k b P P i.8.( W x f i w 5 ; ; & X ",
"6 8 i 8 8 8 8 f x x z h h f h f f w q ; 6 f ~ ~ s w 0 0 k O.V.$.( ~ i 6 5 q q & $ # $ & 5 w k b P w.p.i._ ) x g 8 6 5 ; > & $ $ ",
"8 i i i t i k z k k z g f f f e w w ; ; i m ( l s q 0 s O.y.,.} ~ z w 5 9 & # $ $ $ > 0 r x m X.w.N.i._ ) x f i 6 ; ; 5 $ $ & ; ",
"t p l l z l z k w 8 r f t 8 8 7 w ; ; i l m l s q 0 0 x -.p.+.! k 5 5 5 5 @ # $ & 5 0 s x } ( w.B.N._ ~ x y i 6 ; ; X $ X + 1 2 ",
"l l x x x x k k w s i t 8 6 6 6 > 9 s l l b K k 0 5 k -.3.$.v k q 9 9 3 @ $ $ & 5 q k F #.w.e.z.N.8.~ x j 8 1 - ; $ $ & < 2 t s ",
"b m b x k k k k s 8 8 2 2 6 5 > 0 k l l M +.K w 0 0 x &.-.K s 0 > > 3 # $ $ > 5 0 s F -.h.h.G.s.n._ j f 8 5 ; ; X . O 5 6 i i l ",
"x E x z k k k 8 6 8 6 6 7 5 ; w k l v ( X.P k 0 w l } &.1.H 0 9 & & # # $ > 6 0 d x w.Z.z.s.Z.N.Q T f 8 5 ; ; & O X ; 8 f g l m ",
"x E l k r w 6 6 6 6 6 q 5 ; 6 k l l ~ O.P l w 0 f V  .1.H i 9 > 5 $ # $ & 0 0 w l +.V.S.H.s.p._ T u t < ; 5 ; & $ ; 8 f g b l l ",
"x z z 8 1 5 5 7 7 q q ; - 5 s l l x ~ b l w 0 s b K 3.{ k q 9 9 & # $ & 0 q s x #.V.Z.G.N.p._ T u t < + 5 ; & $ ; 6 t g l l l l ",
"k r 2 5 ; 5 5 7 w 7 ; ; q s l l l x l k w 0 w l K #.3.G w 0 9 9 # # * : 0 w l  .3.S.B.B.p._ h f 8 ; ; > ; O O + 6 i g x k x k k ",
"w 6 5 ; ; 5 0 q 5 ; : w k l l l v l s w 0 s l A #.3.{ k 9 9 9 * $ * > 0 s k F +.j.N.N.b._ h e 6 ; ; > $ ; ; < w s k x l k k k w ",
"6 5 ; ; 5 0 q 5 ; 5 w k l b x c l s s 0 s s l H #.2.x q > 9 > $ & > 6 8 k l +.j.N.D.N.>.T 8 5 ; ; > $ $ > 5 s l l x g k k k s 0 ",
"5 ; ; 5 q 0 5 ; 0 k l l b m b k k s s k s k / &. .G i : > 9 & X > 9 w k x } -.,.b.n.( x f 5 ; ; + $ $ > 0 k x b ! ~ g k l w 0 5 ",
"+ 5 q q 5 5 5 i d l l m m b l k k z l f k x  . .{ k 9 > 0 > * & 9 6 i x K _ :.4.4.:.E e 7 + ; 5 & $ * 9 s x m m Q E k j 8 q 5 + ",
"5 q 0 0 0 i l d l m #.K v l k l l x z h x x K K F 0 > q 0 > > 5 6 w k x { :.>.>.O.E e 8 5 & 5 & & & 9 s j m ( _ b x x 8 6 5 $ & ",
"> 0 s s l x m c ~ y.#.+.K x G x x j f f j b +.' k 9 ; q > $ > 7 8 k x x O.4.O.:.~ f e 5 ; > 3 X & > s b O.-.i.x x x e 1 5 # & > ",
"a s l m } O._ O.V.-.t.j.$. .{ { E h f i j ! } F 0 > 0 0 $ $ 5 8 k l l ! :.4.O.:.x 2 7 5 ; & & $ > 0 l  .y.p.b x k s 5 5 . $ > > ",
"d m w.P X.O.>.#.X.X.z.J.$.y.~ E h h 8 f x  .K s 9 0 0 $ $ + 8 k k l m _ >.,._ / k 6 5 ; > $ & > 0 l ~ -.y.y.m k w 0 ; # # & > 0 ",
"X.p.y.w.-.O. . .K w.K.t.3. .x z u f i x ~ K l 0 9 6 & $ ; 6 r k k l ~ y.#.,.( T 8 5 5 > & & = q d ( -.y.y. .l s q 9 &   X 5 s l ",
"B.N.N.O. . .#.+.w.f.V.V.-.b 8 f k 8 k b K l w 9 0 > $ & 5 k z k w l ~ #.-.O.b k 6 5 5 & $ > 0 k K +.y.y.y.x s w 5 > $ & 5 s x -.",
"B.p.+.b { { m $.V.j.y.y.m i 8 w w f x x x s 9 > : $ $ 5 r z k 7 k x  .3.#.m l 8 5 5 3 $ & 0 k K X.y.Z.b. .k w q 5 9 & 5 k x O.n.",
"y.O.K b X.P w.p.>.O.O.x i w w 6 i x G x k 0 ; : $ $ 5 w k i 6 8 x <.3.#.K m s 6 5 9 & & 9 w H w.$.z.w.,.x q q q q 0 ; w z m $.N.",
"+.} ! +.$.y.y.N.+.~ l i 7 0 5 7 k x x k 0 > 6 & $ > 0 s k 6 6 k K 3.3.<.l l w 5 > & $ * 0 l K ( t.k.$.x k q 0 9 q 5 5 z x b -.b.",
">.} K +.y.8.8.( b l k w 0 9 0 w k k k 6 ; 6 & $ & 9 w s w 0 w F 3.V.#.F l s 7 < 9 $ & 9 k K w.w.S.$.K z w q 9 q q 5 6 z l m +.i.",
"/ } O.-.-.i.~ f k k w 9 > 0 w s A k 0 : 9 > $ $ 9 w s 0 q k ' 3.V.1.G m l w 5 5 & $ > q A $.w.z.V.K x s 9 > 9 q 6 6 i x b -.i.-.",
"} K m ~ ~ j f k k w 0 9 0 0 i k r 0 ; 0 & $ $ > 0 s w 0 w F 3.3.2.K K x k 7 5 9 $ & 9 k K w.z.Z.O.V s 9 > 9 q 0 7 8 x x ( >.+.O.",
"m m x x f k k k w 0 9 0 0 w k w 0 5 5 & # $ > 0 0 w w w x #.3.<.K +.m l w 5 5 & $ ; 0 l P t.V.-.A k w 9 > 5 0 q 6 k E b _ -.m b ",
"~ x x l l k k w 0 9 0 i s k w 0 5 5 & $ $ 9 0 0 w q w V } #.P #.I K x k 5 ; 4 $ $ 5 s K $.j.#.{ z w 5 9 9 q 6 6 8 x ~ m O.m b m ",
"~ ~ x x k r 0 9 > 6 w w w q 0 5 : & $ $ 9 0 0 w w k D m K #.-.3.} x l w ; > & $ ; w b K $.-.} z s 0 > 9 q q 5 6 k x x m m b x ~ ",
"E E x l w 0 9 > : 7 w w q 0 9 9 X $ X 5 q w w k B x F H  .4.,.#.m l s 5 ; & $ > 0 l P O.+.} x r w 0 > 9 0 5 5 8 x x l ~ b l x b ",
"l k s w 0 9 ; ; 0 q s w 0 0 9 & & > 9 0 w k D F K H m O.b.n.&.E x k 5 & ; & & 0 l K $.-.O.K k w q 5 > 5 5 5 8 k x x l x x l x x ",
"s w q 9 > ; 5 6 w s 0 0 w 0 > & 9 0 6 0 l H K ( O.M ( b.b.:.! x k 6 ; ; > & 0 s K +.+.} K x k 7 5 > 5 9 q 8 k z l x x b x x x k ",
"q 9 9 > > 5 0 a s a 0 0 0 & > 9 q w k b P $.X.-.p.X._ 4.) [ x s 0 5 ; 5 5 0 s Z P O.K l x z 8 6 9 9 q q q w k l k x j x l k k s "
};
